<svg xmlns="http://www.w3.org/2000/svg" version="1.1" xmlns:xlink="http://www.w3.org/1999/xlink" xmlns:svgjs="http://svgjs.dev/svgjs" viewBox="0 0 800 800"><defs><linearGradient x1="50%" y1="0%" x2="50%" y2="100%" id="uundulate-grad"><stop stop-color="hsl(30, 100%, 50%)" stop-opacity="1" offset="45%"></stop><stop stop-color="hsl(30, 100%, 70%)" stop-opacity="1" offset="100%"></stop></linearGradient></defs><g stroke-width="6" stroke="url(#uundulate-grad)" fill="none"><path d="M2796.3597073982182 545.6389579568818C2718.728153728641 1453.7022671731906 1274.0674040077024 2036.140982922041 459.726504055252 2445.3530677077406C-354.61439589719816 2854.565152493441 -602.021111811875 2768.4615243207936 -1112.4766123735474 2509.856964928248C-1622.9321129352195 2251.2524055357035 -1943.58465961606 1774.3527240545886 -1990.4598986407734 1204.051182623516C-2037.335137665487 633.7496411924435 -1925.5648139234158 421.8683158828658 -1337.4777596921667 -227.5904339408978C-749.3907054609178 -877.0491837646607 -28.858177307941787 -2074.440273175916 832.3579616692223 -1913.3508165305466C1693.574100646386 -1752.261359885177 2873.9912610677948 -362.42435125942666 2796.3597073982182 545.6389579568818C2718.728153728641 1453.7022671731906 1274.0674040077024 2036.140982922041 459.726504055252 2445.3530677077406 "></path><path d="M2721.4734417464915 541.0877309839861C2646.2678741290883 1420.774061787285 1246.7527728369296 1985.0115676689838 457.8600260079934 2381.4357748051307C-331.03272082094304 2777.8599819412766 -570.7079768632861 2694.4470921490256 -1065.211743032406 2443.9239252374973C-1559.7155092015262 2193.400758325969 -1870.3476637985902 1731.4041918911394 -1915.7580516037815 1178.924573629788C-1961.1684394089727 626.4449553684362 -1852.8909382838415 421.18492147478264 -1283.1816044973189 -207.978242416988C-713.4722707107962 -837.1414063087586 -15.456384062600591 -1997.1140241759117 818.8467505715266 -1841.05861305071C1653.1498852056543 -1685.0032019255084 2796.679009363894 -338.59859981931254 2721.4734417464915 541.0877309839861C2646.2678741290883 1420.774061787285 1246.7527728369296 1985.0115676689838 457.8600260079934 2381.4357748051307 "></path><path d="M2646.587206612343 536.536626081403C2573.807625047115 1387.845978471692 1219.4381721837349 1933.8822744862396 455.99357847831243 2317.5186039728333C-307.45101522710934 2701.1549334594265 -539.3948113971192 2620.43278204757 -1017.9468431736868 2377.991007617059C-1496.4988749502547 2135.549233186548 -1797.1106374635424 1688.455781798003 -1841.0561740492114 1153.7980867063725C-1885.0017106348805 619.1403916147419 -1780.2170321266888 420.5016491370129 -1228.8854187848929 -188.36592882276568C-677.5538054430967 -797.2335067825434 -2.054560299681725 -1919.787653105595 805.3355699914096 -1768.7662875005612C1612.7257002825004 -1617.744921895527 2719.366788177571 -314.77272630888615 2646.587206612343 536.536626081403C2573.807625047115 1387.845978471692 1219.4381721837349 1933.8822744862396 455.99357847831243 2317.5186039728333 "></path><path d="M2571.7009714781943 531.9852770381949C2501.3473759651406 1354.9176510154748 1192.1235715305397 1882.7527371628703 454.12713094863193 2253.601188999911C-283.8693096332761 2624.4496408369514 -508.08164593095216 2546.4182278054905 -970.6819433149676 2312.0578458559958C-1433.282240698983 2077.697463906501 -1723.8736111284948 1645.5071275642422 -1766.3542964946414 1128.6713556423324C-1808.834981860788 611.8355837204226 -1707.543125969536 419.81813265861774 -1174.5892330724666 -168.7538593691679C-641.635340175397 -757.3258513969533 11.347263463237596 -1842.4615261759034 791.824389411292 -1696.474206091037C1572.301515359347 -1550.486886006171 2642.054566991248 -290.94709693908453 2571.7009714781943 531.9852770381949C2501.3473759651406 1354.9176510154748 1192.1235715305397 1882.7527371628703 454.12713094863193 2253.601188999911 "></path><path d="M2496.8147058264676 527.4342942059238C2428.887096365588 1321.9896897701938 1164.808940359767 1831.623566050438 452.2606529013733 2189.684140237925C-260.28763455702097 2547.744714425413 -476.7685109823633 2472.4040397743465 -923.4170739738265 2246.125050305869C-1370.0656369652897 2019.8460608373925 -1650.636615311025 1602.5588395414175 -1691.6524494576495 1103.544990789229C-1732.6682836042737 604.5311420370404 -1634.8692503299617 419.1349823911596 -1120.2930778776185 -149.1414237046331C-605.7169054252759 -717.4178298004258 24.74905670857879 -1765.135033035274 778.3131783135968 -1624.181758470576C1531.8772999186153 -1483.2284839058775 2564.742315287347 -267.12110135834587 2496.8147058264676 527.4342942059238C2428.887096365588 1321.9896897701938 1164.808940359767 1831.623566050438 452.2606529013733 2189.684140237925 "></path><path d="M2421.928440174741 522.8831893033407C2356.4268167660357 1289.0616064546011 1137.494309188994 1780.4942728676933 450.3941748541142 2125.766969405628C-236.70595948076584 2471.039665943562 -445.4553760337744 2398.389729672892 -876.1522046326854 2180.192132685431C-1306.8490332315964 1961.994535697971 -1577.3996194935555 1559.6104294482807 -1616.9506024206576 1078.4185038658134C-1656.5015853477596 597.2265782833456 -1562.195374690387 418.45171005338943 -1065.9969226827707 -129.52911011041078C-569.7984706751542 -677.509930274211 38.15084995391953 -1687.8086619649575 764.8019672159012 -1551.8894329204268C1491.4530844778837 -1415.9702038758965 2487.430063583447 -243.29522784791948 2421.928440174741 522.8831893033407C2356.4268167660357 1289.0616064546011 1137.494309188994 1780.4942728676933 450.3941748541142 2125.766969405628 "></path><path d="M2347.042205040593 518.3317181898201C2283.9665676840614 1256.1331569280705 1110.179708535799 1729.3646134740115 448.5277273244333 2061.8494323623927C-213.12425388693237 2394.3342512507734 -414.14221056760744 2324.375053360498 -828.8873047739662 2114.2588488540555C-1243.632398980325 1904.142644347612 -1504.1625931585077 1516.6616531442069 -1542.2487248660875 1053.2916507314603C-1580.3348565736671 589.9216483187138 -1489.5214685332344 417.76807150468176 -1011.7007369703446 -109.91716272712597C-533.8800054074545 -637.6023969589335 51.5526737168384 -1610.4826571055783 751.2907866357841 -1479.5974735812156C1451.0288995547294 -1348.712290056853 2410.117842397124 -219.46972054843036 2347.042205040593 518.3317181898201C2283.9665676840614 1256.1331569280705 1110.179708535799 1729.3646134740115 448.5277273244333 2061.8494323623927 "></path><path d="M2272.155847836132 513.780491216924C2211.5061965317755 1223.2049515421654 1082.8649858122917 1678.2351982209543 446.6611577244403 1997.9321394597823C-189.54267036341162 2317.6290806986112 -382.82916717175294 2250.36062118873 -781.6225269855595 2048.3258091633043C-1180.4158867993658 1846.2909971378785 -1430.9256888937725 1473.7131209807576 -1467.54696938183 1028.1650417377323C-1504.1682498698874 582.616962494707 -1416.8476844463944 417.0846770965991 -957.404673328231 -90.30497120321593C-497.9616622100675 -597.6946195030309 64.95437540944499 -1533.156408105574 737.7794839853545 -1407.3052701013792C1410.6045925612634 -1281.4541320971841 2332.8054991404897 -195.6439691083167 2272.155847836132 513.780491216924C2211.5061965317755 1223.2049515421654 1082.8649858122917 1678.2351982209543 446.6611577244403 1997.9321394597823 "></path><path d="M2197.2697042547184 509.22926424402885C2139.0460390025355 1190.2767461562598 1055.5504767118314 1627.1057829678975 444.7948017474937 1934.0148465571729C-165.96087321684377 2240.9239101464477 -351.5159101528516 2176.3461890169624 -734.3575355741059 1982.392769472553C-1117.19916099536 1788.4393499281446 -1357.6885710059903 1430.7645888173083 -1392.8450002745253 1003.0384327440042C-1428.0014295430606 575.3122766706997 -1344.1736867365073 416.4012826885164 -903.1083960630705 -70.69277967930611C-462.04310538963364 -557.7868420471284 78.35629072509846 -1455.8301591055697 724.2683949579714 -1335.0130666215427C1370.1804991908443 -1214.1959741375156 2255.4933695069003 -171.8182176682028 2197.2697042547184 509.22926424402885C2139.0460390025355 1190.2767461562598 1055.5504767118314 1627.1057829678975 444.7948017474937 1934.0148465571729 "></path><path d="M2122.383591190882 504.6780372711328C2066.5859119908737 1157.3485407703542 1028.2359981289492 1575.9763677148403 442.9284762881257 1870.0975536545625C-142.37904555269802 2164.2187395942847 -320.2026226163721 2102.331756845194 -687.092513645074 1916.4597297818027C-1053.982404673776 1730.5877027184106 -1284.45142260063 1387.8160566538595 -1318.143000649643 977.9118237502762C-1351.8345786986556 568.0075908466924 -1271.499658509042 415.7178882804335 -848.8120882803319 -51.0805881553963C-426.12451805162164 -517.8790645912259 91.75823655833005 -1378.5039101055656 710.7573364481668 -1262.7208631417063C1329.756436338003 -1146.9378161778468 2178.1812703908904 -147.99246622808892 2122.383591190882 504.6780372711328C2066.5859119908737 1157.3485407703542 1028.2359981289492 1575.9763677148403 442.9284762881257 1870.0975536545625 "></path><path d="M2047.4972339864207 500.12668822792466C1994.1255408385869 1124.4202133141366 1000.921275405442 1524.8468303914715 441.0619066881327 1806.1801386816405C-118.79746202917727 2087.513446971809 -288.8895792205176 2028.3172026031139 -639.8277358566672 1850.5265680207394C-990.765892492817 1672.7359334383646 -1211.2145183358948 1344.8674024200982 -1243.4412451653852 952.7850926862357C-1275.6679719948759 560.7027829523736 -1198.825874422202 415.0343718020383 -794.5160246382181 -31.468518701798757C-390.20617485423463 -477.97140920563606 105.15993825093665 -1301.1777831758739 697.2460337977368 -1190.4287817321824C1289.332129344537 -1079.6797802884907 2100.868927134255 -124.1668368582873 2047.4972339864207 500.12668822792466C1994.1255408385869 1124.4202133141366 1000.921275405442 1524.8468303914715 441.0619066881327 1806.1801386816405 "></path><path d="M1972.6109683346945 495.57558332534154C1921.6652612390349 1091.492129998544 973.6066442346691 1473.7175372087268 439.1954286408734 1742.2629678493427C-95.21578695292192 2010.8083984899586 -257.5764442719287 1954.3028925016588 -592.5628665155261 1784.5936504003007C-927.5492887591236 1614.884408298943 -1137.977522518425 1301.9189923269614 -1168.7393981283933 927.6586057628206C-1199.5012737383618 553.3982191986788 -1126.1519987826275 414.35109946426815 -740.2198694433703 -11.856205107576443C-354.2877401041128 -438.0635096794208 118.56173149627762 -1223.8514121055573 683.7348227000411 -1118.1364561820335C1248.907913903805 -1012.4215002585097 2023.5566754303545 -100.3409633478609 1972.6109683346945 495.57558332534154C1921.6652612390349 1091.492129998544 973.6066442346691 1473.7175372087268 439.1954286408734 1742.2629678493427 "></path><path d="M1897.7247026829677 491.0246004930707C1849.2049816394824 1058.5641687532639 946.2920130638959 1422.588366096295 437.32895059361454 1678.3459190873577C-71.6341118766668 1934.10347207842 -226.26330932333985 1880.2887044705158 -545.297997174385 1718.660854850175C-864.3326850254302 1557.033005229834 -1064.7405267009553 1258.9707043041376 -1094.0375510914014 902.5322409097171C-1123.3345754818474 546.0937775152968 -1053.478123143053 413.66794919681047 -685.9237142485222 7.756230556958599C-318.3693053539914 -398.1554880828935 131.96352474161858 -1146.524918964928 670.223611602346 -1045.844008561572C1208.4836984630733 -945.1630981582161 1946.244423726454 -76.51496776712202 1897.7247026829677 491.0246004930707C1849.2049816394824 1058.5641687532639 946.2920130638959 1422.588366096295 437.32895059361454 1678.3459190873577 "></path><path d="M1822.838589619132 486.4731293795501C1776.744854627821 1025.6357192267333 918.9775344810141 1371.4587067026132 435.46262513424654 1614.4283820441224C-48.052284212521045 1857.398057385632 -194.95002178686036 1806.2740281581227 -498.0329752453532 1652.7275710187987C-801.1159287038462 1499.181113879475 -991.5033782955952 1216.0219280000633 -1019.3355514665188 877.405387775364C-1047.1677246374425 538.7888475506645 -980.8040949155878 412.9843106481028 -631.6274064657837 27.368177940243413C-282.4507180159794 -358.24795476761597 145.36547057484995 -1069.1989141055487 656.7125530925409 -973.5520492223607C1168.0596356102324 -877.9051843391725 1868.9323246104436 -52.689460467633126 1822.838589619132 486.4731293795501C1776.744854627821 1025.6357192267333 918.9775344810141 1371.4587067026132 435.46262513424654 1614.4283820441224 "></path><path d="M1747.952354484984 481.9219634418105C1704.2846055458467 992.7075748759839 891.662933827819 1320.3293524847122 433.5961776045656 1550.5111501766687C-24.47057861868757 1780.6929478686247 -163.63685632069337 1732.259657021511 -450.768075386634 1586.7945923632042C-737.8992944525747 1441.3295277048974 -918.2663519605474 1173.0734568717703 -944.6336739119488 852.2788398167922C-971.0009958633501 531.484222761814 -908.1301887584352 412.30097727517636 -577.3312207533576 46.98043049930948C-246.53225274827992 -318.3401162765572 158.76729433776927 -991.8726040703882 643.2013725124239 -901.259784707368C1127.6354506870784 -810.6469653443476 1791.6201034241208 -28.863647992362985 1747.952354484984 481.9219634418105C1704.2846055458467 992.7075748759839 891.662933827819 1320.3293524847122 433.5961776045656 1550.5111501766687 "></path><path d="M1673.0660888332573 477.37073646891486C1631.8243259462943 959.7793694900788 864.3483026570461 1269.1999372316554 431.72969955730696 1486.5938572740588C-0.8889035424324447 1703.9877773164617 -132.3237213721045 1658.245224849743 -403.5032060454929 1520.8615526724534C-674.6826907188813 1383.4778804951634 -845.0293561430777 1130.1249247083215 -869.9318268749569 827.1522308230642C-894.8342976068359 524.1795369378069 -835.4563131188606 411.6175828670937 -523.0350655585096 66.59262202321952C-210.61381799815854 -278.43233882065476 172.16908758311024 -914.546355070384 629.6901614147284 -828.9675812275316C1087.2112352463469 -743.388807384679 1714.3078517202198 -5.037896552249094 1673.0660888332573 477.37073646891486C1631.8243259462943 959.7793694900788 864.3483026570461 1269.1999372316554 431.72969955730696 1486.5938572740588 "></path><path d="M1598.1798536991091 472.81944846086276C1559.3640768643204 926.8511030690172 837.0337020038512 1218.0704609434424 429.863252027626 1422.6765033362922C22.69280205140103 1627.2825457291424 -101.01055590593751 1584.2307316428187 -356.2383061867737 1454.928451946546C-611.4660564676097 1325.6261722502736 -771.79232980803 1087.176331509716 -795.2299493203868 802.0255607941799C-818.6675688327435 516.8747900786436 -762.7824069617079 410.93412742385476 -468.73887984608336 86.20475251197286C-174.69535273045892 -238.52462239990848 185.5709113460291 -837.2201671055361 616.1789808346111 -756.6754387828514C1046.787050323193 -676.1307104601666 1636.9956305338974 18.787793852708546 1598.1798536991091 472.81944846086276C1559.3640768643204 926.8511030690172 837.0337020038512 1218.0704609434424 429.863252027626 1422.6765033362922 "></path><path d="M1523.2936185649605 468.2682825231234C1486.9038277823465 893.9229587182679 809.7191013506565 1166.9411067255414 427.9968044979453 1358.7592714688385C46.27450764523428 1550.5774362121351 -69.69739043977052 1510.216360506207 -308.97340632805435 1388.9954732909514C-548.2494222163383 1267.7745860756959 -698.5553034729821 1044.2278603814234 -720.5280717658167 776.8990128356081C-742.5008400586512 509.57016528979284 -690.1085008045553 410.25079405092833 -414.44269413365737 105.81700507103915C-138.7768874627593 -198.6167839088498 198.9727351089482 -759.8938570703756 602.6678002544938 -684.3831742678587C1006.3628654000395 -608.8724914653417 1559.6834093475745 42.61360632797869 1523.2936185649605 468.2682825231234C1486.9038277823465 893.9229587182679 809.7191013506565 1166.9411067255414 427.9968044979453 1358.7592714688385 "></path><path d="M1448.4073529132338 463.71705555022754C1414.443548182794 860.9947533323625 782.4044701798834 1115.8116914724847 426.13032645068665 1294.8419785662281C69.8561827214894 1473.872265659972 -38.38425549118165 1436.201928334439 -261.70853698691326 1323.0624336002002C-485.03281848264487 1209.922938865962 -625.3183076555126 1001.2793282179744 -645.8262247288247 751.7724038418801C-666.3341418021369 502.2654794657858 -617.4346251649808 409.56739964284543 -360.1465389388093 125.42919659494919C-102.85845271263793 -158.70900645294728 212.3745283542894 -682.5676080703714 589.1565891567984 -612.0909707880223C965.9386499593077 -541.6143335056731 1482.3711576436735 66.43935776809258 1448.4073529132338 463.71705555022754C1414.443548182794 860.9947533323625 782.4044701798834 1115.8116914724847 426.13032645068665 1294.8419785662281 "></path><path d="M1373.521178814242 459.1659506476444C1341.983360135976 828.0666700167696 755.0899305618448 1064.6823982897401 424.26393995616195 1230.9248077339307C93.43794935047913 1397.167217178121 -7.071028989858405 1362.1876182329834 -214.4435760930378 1257.129515979762C-421.8161231962172 1152.0714137265404 -552.0812202853085 958.3309181248378 -571.1242861390983 726.6459169184645C-590.1673519928884 494.96091571209126 -544.7606579726719 408.88412730507525 -305.850292191227 145.04151018917128C-66.93992640978195 -118.80110692673236 225.7764131523645 -605.2412370000548 575.6454696118374 -539.7986452378734C925.51452607131 -474.356053475692 1405.0589974925074 90.2652312785192 1373.521178814242 459.1659506476444C1341.983360135976 828.0666700167696 755.0899305618448 1064.6823982897401 424.26393995616195 1230.9248077339307 "></path><path d="M1298.6349131625157 454.6147236747488C1269.523080536424 795.1384646308643 727.7752993910719 1013.5529830366831 422.3974619089031 1167.0075148313208C117.01962442673437 1320.4620466259585 24.242105958730463 1288.1731860612153 -167.1787067518967 1191.196476289011C-358.59951946252374 1094.2197665168067 -478.8442244678389 915.3823859613885 -496.42243910210647 701.5193079247365C-514.000653736374 487.6562298880842 -472.0867823330974 408.2007328969926 -251.55413699637893 164.65370171308132C-31.02149165966057 -78.89332947082983 239.17820639770548 -527.9149880000505 562.134258514142 -467.50644175803694C885.0903106305784 -407.0978955160234 1327.7467457886064 114.09098271863297 1298.6349131625157 454.6147236747488C1269.523080536424 795.1384646308643 727.7752993910719 1013.5529830366831 422.3974619089031 1167.0075148313208 "></path><path d="M1223.7486475107885 450.06349670185296C1197.0628009368716 762.2102592449589 700.4606682202991 962.4235677836264 420.5309838616445 1103.090221928711C140.6012995029895 1243.7568760737952 55.55524090731933 1214.1587538894476 -119.91383741075549 1125.2634365982603C-295.38291572883037 1036.368119307073 -405.6072286503692 872.4338537979397 -421.72059206511454 676.3926989310085C-437.8339554798598 480.3515440640774 -399.41290669352287 407.5173384889099 -197.25798180153095 184.26589323699125C4.896943090460809 -38.98555201492741 252.57999964304645 -450.5887390000463 548.6230474164465 -395.2142382782005C844.6660951898466 -339.8397375563548 1250.4344940847056 137.91673415874698 1223.7486475107885 450.06349670185296C1197.0628009368716 762.2102592449589 700.4606682202991 962.4235677836264 420.5309838616445 1103.090221928711 "></path><path d="M1148.8624123766401 445.5122697289571C1124.6025518548975 729.2820538590538 673.1460675671042 911.2941525305694 418.6645363319635 1039.1729290261007C164.18300509682285 1167.051705521632 86.86840637348632 1140.1443217176798 -72.64893755203627 1059.3303969075093C-232.16628147755887 978.5164720973389 -332.3702023153215 829.4853216344907 -347.01871451054444 651.2660899372804C-361.66722670576746 473.0468582400704 -326.7390005363702 406.8339440808272 -142.96179608910484 203.87808476090117C40.81540835816054 0.9222254409751258 265.98182340596554 -373.2624900000421 535.1118668363292 -322.9220347983641C804.2419102666929 -272.58157959668614 1173.1222728983832 161.74248559886087 1148.8624123766401 445.5122697289571C1124.6025518548975 729.2820538590538 673.1460675671042 911.2941525305694 418.6645363319635 1039.1729290261007 "></path><path d="M1073.9761162073357 440.9609512033271C1052.142241737767 696.3537569204138 645.8314058787532 860.164645724778 416.79802776712654 975.2555445707562C187.76464965549997 1090.3464434167342 118.18151080449707 1066.1297979931774 -25.38409872847319 993.397265664024C-168.94970826144362 920.6647333348706 -259.1332370154299 786.536697918307 -272.31689799113065 626.139389390818C-285.5005589668313 465.74208086332874 -254.0651554143738 406.15045812001006 -88.66567141183509 223.4901847320766C76.73381259070379 40.829911344143284 279.3835861337284 -295.9363325527723 521.6006252210557 -250.62992287126207C763.817664308383 -205.3235131897519 1095.8099906769041 185.56814548624038 1073.9761162073357 440.9609512033271C1052.142241737767 696.3537569204138 645.8314058787532 860.164645724778 416.79802776712654 975.2555445707562 "></path><path d="M999.0898505556092 436.4097547480095C979.6819621382149 663.4255820520866 618.5167747079804 809.0352609892993 414.9315497198677 911.3382821857242C211.3463247317552 1013.6413033821493 149.49464575308593 992.1153963389875 21.880770612667902 927.4642564908511C-105.73310452775019 862.8131166427149 -185.8962411979603 743.5881962724361 -197.61505095413867 601.0128109146681C-209.33386071031708 458.43742555689994 -181.39127977479933 405.4670942295055 -34.369516216986995 243.10240677356455C112.65224734082517 80.73771931762394 292.78537937906924 -218.61005303518994 508.08941412336026 -178.33768887384758C723.3934488676512 -138.06532471250517 1018.4977389730034 209.3939274439324 999.0898505556092 436.4097547480095C979.6819621382149 663.4255820520866 618.5167747079804 809.0352609892993 414.9315497198677 911.3382821857242 "></path><path d="M924.2036764566169 431.8585582926919C907.221774091397 630.4974071837594 591.2022350899417 757.9058762538205 413.0651632253433 847.4210198006922C234.9280913607447 936.9361633475642 180.80787225440918 918.1009946847976 69.14573150654337 861.5312473176782C-42.516409241322435 804.9614999505591 -112.65915382775626 700.6396946265654 -122.91311236441237 575.8862324385182C-133.16707090106843 451.132770250471 -108.71731258249042 404.78373033900084 19.926730530595364 262.7146288150527C148.57077364368104 120.64552729110449 306.1872641771447 -141.28377351760759 494.5782945783992 -106.04545487643304C682.9693249796537 -70.80713623525844 941.1855788218368 233.2197094016244 924.2036764566169 431.8585582926919C907.221774091397 630.4974071837594 591.2022350899417 757.9058762538205 413.0651632253433 847.4210198006922 "></path><path d="M849.3174413224688 427.30730080221815C834.7615250094229 597.5691712802759 563.8876344367469 706.7764304831853 411.1987156956625 783.5036963805042C258.5097969545782 860.230962277823 212.12103772057617 844.0865319954514 116.41063136526259 795.5981771093493C20.700225009949065 747.1098222232472 -39.42212749270851 657.691131945538 -48.211234809842324 550.759592927212C-57.00034212697608 443.82805390888586 -36.043406425337764 404.10030541334004 74.22291624302147 282.3267898213844C184.48923891138065 160.55327422942878 319.5890879400637 -63.957555035181485 481.0671139982819 -33.75328191417475C642.5451400565003 -3.549008793167957 863.8733576355141 257.0454303241602 849.3174413224688 427.30730080221815C834.7615250094229 597.5691712802759 563.8876344367469 706.7764304831853 411.1987156956625 783.5036963805042 "></path><path d="M774.431175670742 422.7561653820567C762.3012454098707 564.641057447105 536.573003265974 655.6471067828628 409.33223764840363 719.5864950306286C282.0914720308333 783.5258832783941 243.43417266916504 770.072191376418 163.67550070640374 729.6652289713329C83.91682874364244 689.2582665662476 33.814868324761164 614.7426913348235 26.490612227149654 525.6330754862183C19.166356129538144 436.5234596376133 36.63046921423677 403.41700255799174 128.51907143786946 301.9390728980287C220.40767366150214 200.4611432380657 332.99088118540465 13.368785517557058 467.5559029005865 38.53901311839604C602.1209246157683 63.70924071923503 786.5611059316134 280.87127331700856 774.431175670742 422.7561653820567C762.3012454098707 564.641057447105 536.573003265974 655.6471067828628 409.33223764840363 719.5864950306286 "></path><path d="M699.5449405365937 418.2048773740048C689.8409963278965 531.7127910260433 509.25840261277926 604.5176304946497 407.4657901187229 655.6691410928621C305.67317762466666 706.8206516910747 274.74733813533203 696.0576981694937 210.940400565123 663.7321282454255C147.13346299491394 631.4065583213575 107.05189465980891 571.794098136218 101.1924897817197 500.50640545733404C95.33308490363055 429.21871277845 109.30437537138943 402.7335471147528 182.81525715029557 321.5512033867823C256.32613892920165 240.36885965881197 346.3927049483236 90.69497348240503 454.0447223204692 110.83115556307621C561.6967396926146 130.96733764374738 709.2488847452908 304.6969637219662 699.5449405365937 418.2048773740048C689.8409963278965 531.7127910260433 509.25840261277926 604.5176304946497 407.4657901187229 655.6691410928621 "></path><path d="M624.6587206612344 413.6536504011091C617.3807625047115 498.78458564013795 481.9438172183734 553.3882152415927 405.59935784783124 591.7518481902521C329.2548984772891 630.1154811389115 306.0605188602881 622.0432659977257 258.2053156826313 597.7990885546747C210.3501125049745 573.5549111116236 180.28893625364577 528.845565972769 175.89438259507887 475.379796463606C171.49982893651196 421.914026954443 181.97829678733115 402.05015270667 237.11145812151074 341.1633949106922C292.2446194556903 280.2766371147144 359.7945439700318 168.02122248240926 440.53355699914096 183.12335904291263C521.2725700282501 198.225495603416 631.9366788177571 328.5227151620801 624.6587206612344 413.6536504011091C617.3807625047115 498.78458564013795 481.9438172183734 553.3882152415927 405.59935784783124 591.7518481902521 "></path><path d="M549.7724702682968 409.10245394579147C544.9204981639482 465.8564107718107 454.62920130638963 502.2588305061139 403.73289505936145 527.8345858052201C352.83658881233333 553.4103411043263 337.373669067666 548.0288643435359 305.4702002825615 531.8660793815018C273.566731497457 515.7032944194677 253.52594732990445 485.8970643268981 250.59624489085985 450.2532179874561C247.66654245181525 414.6093716480141 254.65218768569468 401.36678881616547 291.4076285751478 360.7756169521802C328.1630694646008 320.18444508819505 373.1963524741618 245.3475019999916 427.0223611602346 255.41559304032717C480.8483698463074 265.4836840806628 554.6244423726454 352.34849711977216 549.7724702682968 409.10245394579147C544.9204981639482 465.8564107718107 454.62920130638963 502.2588305061139 403.73289505936145 527.8345858052201 "></path><path d="M474.88623513414836 404.55122697289573C472.4602490819741 432.92820538590536 427.3146006531948 451.12941525305695 401.8664475296807 463.91729290261003C376.41829440616664 476.70517055216317 368.686834533833 474.01443217176796 352.7351001412807 465.9330396907509C336.7833657487285 457.85164720973387 326.76297366495226 442.94853216344904 325.29812244542995 425.12660899372804C323.83327122590765 407.30468582400704 327.32609384284734 400.68339440808273 345.7038142875739 380.38780847609013C364.08153473230044 360.0922225440975 386.5981762370809 322.6737509999958 413.5111805801173 327.7077965201636C440.4241849231537 332.7418420403314 477.31222118632263 376.1742485598861 474.88623513414836 404.55122697289573C472.4602490819741 432.92820538590536 427.3146006531948 451.12941525305695 401.8664475296807 463.91729290261003 "></path></g></svg>